<svg width="420" height="420" viewBox="0 0 420 420" fill="none" xmlns="http://www.w3.org/2000/svg">
<g filter="url(#filter0_d_1_265)">
<path fill-rule="evenodd" clip-rule="evenodd" d="M140.526 30H279.474C340.516 30 390 79.4842 390 140.526V279.474C390 340.516 340.516 390 279.474 390H140.526C79.4842 390 30 340.516 30 279.474V140.526C30 79.4842 79.4842 30 140.526 30Z" fill="black" fill-opacity="0.01"/>
</g>
<mask id="mask0_1_265" style="mask-type:alpha" maskUnits="userSpaceOnUse" x="30" y="30" width="360" height="360">
<path fill-rule="evenodd" clip-rule="evenodd" d="M140.526 30H279.474C340.516 30 390 79.4842 390 140.526V279.474C390 340.516 340.516 390 279.474 390H140.526C79.4842 390 30 340.516 30 279.474V140.526C30 79.4842 79.4842 30 140.526 30Z" fill="white"/>
</mask>
<g mask="url(#mask0_1_265)">
<rect x="30.2451" y="30" width="360" height="360" fill="white"/>
<rect x="210.381" y="110" width="69.6189" height="200" rx="14.4444" fill="url(#paint0_linear_1_265)"/>
<path d="M238.992 301.746V310H230.727H177.638C173.074 310 169.373 306.305 169.373 301.746V168.095C169.373 163.537 173.074 159.841 177.638 159.841H230.727C235.292 159.841 238.992 163.537 238.992 168.095V301.746Z" fill="black"/>
<path fill-rule="evenodd" clip-rule="evenodd" d="M238.992 301.746V310H230.727H177.638C173.074 310 169.373 306.305 169.373 301.746V168.095C169.373 163.537 173.074 159.841 177.638 159.841H230.727C235.292 159.841 238.992 163.537 238.992 168.095V301.746Z" fill="url(#paint1_linear_1_265)"/>
<path d="M198.619 301.746V310H190.354H137.265C132.7 310 129 306.305 129 301.746V218.254C129 213.695 132.7 210 137.265 210H190.354C194.918 210 198.619 213.695 198.619 218.254V301.746Z" fill="url(#paint2_linear_1_265)"/>
</g>
<defs>
<filter id="filter0_d_1_265" x="0" y="0" width="420" height="420" filterUnits="userSpaceOnUse" color-interpolation-filters="sRGB">
<feFlood flood-opacity="0" result="BackgroundImageFix"/>
<feColorMatrix in="SourceAlpha" type="matrix" values="0 0 0 0 0 0 0 0 0 0 0 0 0 0 0 0 0 0 127 0" result="hardAlpha"/>
<feOffset/>
<feGaussianBlur stdDeviation="15"/>
<feColorMatrix type="matrix" values="0 0 0 0 0 0 0 0 0 0 0 0 0 0 0 0 0 0 0.0720881 0"/>
<feBlend mode="normal" in2="BackgroundImageFix" result="effect1_dropShadow_1_265"/>
<feBlend mode="normal" in="SourceGraphic" in2="effect1_dropShadow_1_265" result="shape"/>
</filter>
<linearGradient id="paint0_linear_1_265" x1="210.381" y1="110" x2="210.381" y2="310" gradientUnits="userSpaceOnUse">
<stop stop-color="#EBBB14"/>
<stop offset="1" stop-color="#B25400"/>
</linearGradient>
<linearGradient id="paint1_linear_1_265" x1="169.373" y1="159.841" x2="169.373" y2="310" gradientUnits="userSpaceOnUse">
<stop stop-color="#F9E583"/>
<stop offset="1" stop-color="#DE9800"/>
</linearGradient>
<linearGradient id="paint2_linear_1_265" x1="129" y1="210" x2="129" y2="310" gradientUnits="userSpaceOnUse">
<stop stop-color="#F9E68B"/>
<stop offset="1" stop-color="#F3CD32"/>
</linearGradient>
</defs>
</svg>
